<svg id="graphql-logo-01" xmlns="http://www.w3.org/2000/svg" width="176.087" height="49" viewBox="0 0 176.087 49">
  <path id="Path_49" data-name="Path 49" d="M31.152,6.9,49.623,17.566V38.9L31.152,49.565,12.68,38.9V17.566Zm-16.4,11.879V34.434L28.32,10.909Zm16.4-8.607L15.511,37.265H46.792ZM44.718,39.334H17.585l13.567,7.835Zm2.831-4.9L33.983,10.909l13.572,7.855Z" transform="translate(-9.349 -3.732)" fill="#e10098"/>
  <circle id="Ellipse_11" data-name="Ellipse 11" cx="4.365" cy="4.365" r="4.365" transform="translate(17.437)" fill="#e10098"/>
  <circle id="Ellipse_12" data-name="Ellipse 12" cx="4.365" cy="4.365" r="4.365" transform="translate(34.874 10.067)" fill="#e10098"/>
  <circle id="Ellipse_13" data-name="Ellipse 13" cx="4.365" cy="4.365" r="4.365" transform="translate(34.874 30.202)" fill="#e10098"/>
  <circle id="Ellipse_14" data-name="Ellipse 14" cx="4.365" cy="4.365" r="4.365" transform="translate(17.437 40.269)" fill="#e10098"/>
  <circle id="Ellipse_15" data-name="Ellipse 15" cx="4.365" cy="4.365" r="4.365" transform="translate(0 30.202)" fill="#e10098"/>
  <circle id="Ellipse_16" data-name="Ellipse 16" cx="4.365" cy="4.365" r="4.365" transform="translate(0 10.067)" fill="#e10098"/>
  <path id="Path_50" data-name="Path 50" d="M130.425,28.9a7.914,7.914,0,0,1-6-2.227A8.708,8.708,0,0,1,122.17,20.7q-.03-.926-.03-2.94t.03-2.94a8.708,8.708,0,0,1,2.257-5.969,7.92,7.92,0,0,1,6-2.227,9.053,9.053,0,0,1,4.425.99,7.147,7.147,0,0,1,2.663,2.351,4.95,4.95,0,0,1,.96,2.381v.064a.5.5,0,0,1-.183.4.7.7,0,0,1-.465.153h-.678a.554.554,0,0,1-.4-.124,1.341,1.341,0,0,1-.247-.495,5.444,5.444,0,0,0-2.059-2.752,6.553,6.553,0,0,0-4.019-1.114,6.358,6.358,0,0,0-4.549,1.579,6.739,6.739,0,0,0-1.762,4.92q-.03.931-.03,2.787t.03,2.787a6.937,6.937,0,0,0,1.762,4.92,6.283,6.283,0,0,0,4.549,1.579,6.543,6.543,0,0,0,4.643-1.638,6.312,6.312,0,0,0,1.762-4.855V18.964h-5.385a.668.668,0,0,1-.495-.183.782.782,0,0,1-.183-.525v-.431a.668.668,0,0,1,.188-.495.619.619,0,0,1,.495-.218h6.617a.648.648,0,0,1,.713.713v2.722a9.256,9.256,0,0,1-.99,4.361,7.053,7.053,0,0,1-2.876,2.94A9.072,9.072,0,0,1,130.425,28.9Z" transform="translate(-64.632 -3.591)" fill="#e10098"/>
  <path id="Path_51" data-name="Path 51" d="M165.247,34.585a.638.638,0,0,1-.678-.678v-14.7a.668.668,0,0,1,.188-.495.619.619,0,0,1,.495-.218h.495a.742.742,0,0,1,.713.713v1.425q1.114-2.133,4.207-2.133h1.143a.638.638,0,0,1,.683.683v.436a.638.638,0,0,1-.678.683h-1.341a3.741,3.741,0,0,0-4.024,4.024v9.577a.619.619,0,0,1-.218.495.668.668,0,0,1-.495.188Z" transform="translate(-86.06 -9.59)" fill="#e10098"/>
  <path id="Path_52" data-name="Path 52" d="M188.908,34.586a6.2,6.2,0,0,1-2.752-.619,5.444,5.444,0,0,1-2.044-1.673,3.959,3.959,0,0,1-.742-2.321,4.073,4.073,0,0,1,1.638-3.341,9.132,9.132,0,0,1,4.484-1.668l4.89-.678V23.2a3.227,3.227,0,0,0-1.049-2.6,4.579,4.579,0,0,0-3.153-.926,4.949,4.949,0,0,0-2.6.619,2.792,2.792,0,0,0-1.267,1.485,1.143,1.143,0,0,1-.307.525.678.678,0,0,1-.431.124h-.431a.638.638,0,0,1-.678-.678,2.905,2.905,0,0,1,.619-1.579,5.049,5.049,0,0,1,1.92-1.609,6.8,6.8,0,0,1,3.188-.678q3.311,0,4.7,1.579a5.593,5.593,0,0,1,1.391,3.836V33.6a.638.638,0,0,1-.7.678h-.525a.638.638,0,0,1-.678-.678V32.141a5.444,5.444,0,0,1-2.009,1.732A7.221,7.221,0,0,1,188.908,34.586Zm.312-1.792a4.949,4.949,0,0,0,3.712-1.485,5.845,5.845,0,0,0,1.455-4.266V25.984l-3.989.559a9.572,9.572,0,0,0-3.836,1.178,2.479,2.479,0,0,0-.129,4.3,5.044,5.044,0,0,0,2.782.772Z" transform="translate(-95.555 -9.279)" fill="#e10098"/>
  <path id="Path_53" data-name="Path 53" d="M220.057,40.158a.638.638,0,0,1-.678-.678v-20.6a.638.638,0,0,1,.683-.678h.525a.638.638,0,0,1,.683.683v1.455a6.052,6.052,0,0,1,5.2-2.445q3.4,0,4.92,2.133a8.756,8.756,0,0,1,1.7,5.2q.03.312.03,1.02t-.03,1.02a8.909,8.909,0,0,1-1.7,5.227,5.751,5.751,0,0,1-4.92,2.1,6.15,6.15,0,0,1-5.2-2.445v7.33a.638.638,0,0,1-.678.683Zm6.222-7.365a4.211,4.211,0,0,0,3.653-1.579A7.271,7.271,0,0,0,231.2,27.1q.03-.312.03-.866a8.909,8.909,0,0,0-1.114-4.7,4.107,4.107,0,0,0-3.836-1.856,4.324,4.324,0,0,0-3.682,1.638,6.533,6.533,0,0,0-1.331,3.806l-.03,1.208.03,1.208a6.345,6.345,0,0,0,.589,2.539,4.9,4.9,0,0,0,1.673,1.95A4.712,4.712,0,0,0,226.278,32.793Z" transform="translate(-113.742 -9.283)" fill="#e10098"/>
  <path id="Path_54" data-name="Path 54" d="M256.377,28.589a.638.638,0,0,1-.678-.678V7.306a.638.638,0,0,1,.683-.678h.525a.638.638,0,0,1,.678.678v7.33a6.469,6.469,0,0,1,2.1-1.826,6.766,6.766,0,0,1,3.089-.614,5.771,5.771,0,0,1,4.672,1.95,7.4,7.4,0,0,1,1.638,4.979v8.785a.638.638,0,0,1-.678.678h-.525a.638.638,0,0,1-.678-.678V19.279a5.661,5.661,0,0,0-1.237-3.9,4.433,4.433,0,0,0-3.494-1.391,4.638,4.638,0,0,0-3.559,1.425,5.361,5.361,0,0,0-1.331,3.866v8.627a.638.638,0,0,1-.683.678Z" transform="translate(-132.085 -3.594)" fill="#e10098"/>
  <path id="Path_55" data-name="Path 55" d="M306.5,30.6q-.465,0-.99-.713L304.147,28a9.845,9.845,0,0,1-4.331.9q-7.949,0-8.167-8.538-.03-.926-.03-2.6t.03-2.6q.124-4.207,2.292-6.37a9.066,9.066,0,0,1,11.76,0q2.168,2.168,2.292,6.375.059,1.856.064,2.6T308,20.37q-.153,4.425-2.257,6.5l1.98,2.787a.767.767,0,0,1,.094.342.634.634,0,0,1-.619.619Zm-6.682-3.559a5.939,5.939,0,0,0,4.425-1.668,7.508,7.508,0,0,0,1.8-5.167q.059-1.856.064-2.445t-.059-2.445a7.384,7.384,0,0,0-1.792-5.133,6.6,6.6,0,0,0-8.845,0,7.4,7.4,0,0,0-1.792,5.138q-.03.931-.03,2.445t.03,2.445a7.613,7.613,0,0,0,1.762,5.167,6.019,6.019,0,0,0,4.44,1.668Z" transform="translate(-150.228 -3.596)" fill="#e10098"/>
  <path id="Path_56" data-name="Path 56" d="M335.437,28.907a.638.638,0,0,1-.678-.678V7.936a.638.638,0,0,1,.683-.678h.589a.638.638,0,0,1,.683.683v19.11h10.671a.648.648,0,0,1,.713.713v.465a.619.619,0,0,1-.218.495.668.668,0,0,1-.495.188Z" transform="translate(-172.014 -3.912)" fill="#e10098"/>
  <path id="Path_57" data-name="Path 57" d="M125,81.7a.5.5,0,0,1-.495-.495V65.787a.524.524,0,0,1,.52-.539H134.1a.495.495,0,0,1,.539.539v.351a.516.516,0,0,1-.539.515h-8.132v6.33h7.642a.495.495,0,0,1,.544.554v.351a.524.524,0,0,1-.54.52h-7.647V81.19a.524.524,0,0,1-.539.52Z" transform="translate(-65.828 -33.2)" fill="#e10098"/>
  <path id="Path_58" data-name="Path 58" d="M154.466,86.046a4.915,4.915,0,0,1-3.806-1.485,5.89,5.89,0,0,1-1.411-3.88V78.7a5.8,5.8,0,0,1,1.411-3.856,4.875,4.875,0,0,1,3.806-1.485,4.806,4.806,0,0,1,3.786,1.485,5.732,5.732,0,0,1,1.435,3.856v1.98a5.826,5.826,0,0,1-1.435,3.88A4.841,4.841,0,0,1,154.466,86.046Zm0-1.361a3.534,3.534,0,0,0,2.683-1.059,4.489,4.489,0,0,0,1.1-3.054V78.829a4.4,4.4,0,0,0-1.1-3.034,3.494,3.494,0,0,0-2.683-1.079,3.574,3.574,0,0,0-2.7,1.079,4.454,4.454,0,0,0-1.079,3.034v1.742a4.559,4.559,0,0,0,1.079,3.054,3.613,3.613,0,0,0,2.7,1.044Z" transform="translate(-78.323 -37.293)" fill="#e10098"/>
  <path id="Path_59" data-name="Path 59" d="M181.326,86.3a4.285,4.285,0,0,1-3.5-1.455,5.8,5.8,0,0,1-1.2-3.806V74.345a.5.5,0,0,1,.495-.495h.4a.5.5,0,0,1,.495.495V80.9q0,4.019,3.5,4.019a3.465,3.465,0,0,0,2.712-1.059,4.168,4.168,0,0,0,.99-2.97V74.345a.5.5,0,0,1,.495-.495h.4a.5.5,0,0,1,.495.495V85.536a.5.5,0,0,1-.495.495h-.4a.5.5,0,0,1-.495-.495V84.427a4.831,4.831,0,0,1-1.623,1.386,4.95,4.95,0,0,1-2.272.485Z" transform="translate(-92.146 -37.545)" fill="#e10098"/>
  <path id="Path_60" data-name="Path 60" d="M205.195,85.755a.5.5,0,0,1-.495-.495V74.049a.5.5,0,0,1,.495-.495h.4a.5.5,0,0,1,.495.495v1.1a4.91,4.91,0,0,1,1.6-1.386,5.142,5.142,0,0,1,2.351-.495,4.38,4.38,0,0,1,3.549,1.485,5.623,5.623,0,0,1,1.267,3.821V85.24a.5.5,0,0,1-.495.495h-.4a.5.5,0,0,1-.495-.495V78.677a4.306,4.306,0,0,0-.94-2.97,3.326,3.326,0,0,0-2.658-1.059,3.524,3.524,0,0,0-2.7,1.079,4.078,4.078,0,0,0-.99,2.94V85.24a.5.5,0,0,1-.495.495Z" transform="translate(-106.329 -37.25)" fill="#e10098"/>
  <path id="Path_61" data-name="Path 61" d="M236.464,81.737a4.382,4.382,0,0,1-3.762-1.643,7.122,7.122,0,0,1-1.272-4.044V74.734A7.008,7.008,0,0,1,232.7,70.7a4.355,4.355,0,0,1,3.762-1.668,4.638,4.638,0,0,1,3.96,1.856V65.315a.5.5,0,0,1,.495-.495h.4a.5.5,0,0,1,.495.495v15.66a.5.5,0,0,1-.495.495h-.4a.5.5,0,0,1-.495-.495V79.866a4.6,4.6,0,0,1-3.96,1.871Zm.144-1.361a3.311,3.311,0,0,0,2.8-1.223,5.073,5.073,0,0,0,.99-2.915q0-.233,0-.916v-.916a4.653,4.653,0,0,0-.445-1.906,3.682,3.682,0,0,0-1.267-1.485,3.579,3.579,0,0,0-2.094-.589,3.228,3.228,0,0,0-2.8,1.223,5.524,5.524,0,0,0-.94,3.1v.658a6.929,6.929,0,0,0,.841,3.564,3.139,3.139,0,0,0,2.915,1.386Z" transform="translate(-119.829 -32.985)" fill="#e10098"/>
  <path id="Path_62" data-name="Path 62" d="M262.572,86.077a4.707,4.707,0,0,1-2.094-.47,4.138,4.138,0,0,1-1.554-1.272,2.97,2.97,0,0,1-.564-1.762,3.1,3.1,0,0,1,1.247-2.539,6.929,6.929,0,0,1,3.41-1.272l3.717-.495v-.851a2.475,2.475,0,0,0-.8-1.98,3.465,3.465,0,0,0-2.4-.7,3.762,3.762,0,0,0-1.98.47,2.123,2.123,0,0,0-.965,1.128.866.866,0,0,1-.238.4.5.5,0,0,1-.332.094h-.327a.5.5,0,0,1-.495-.495,2.213,2.213,0,0,1,.495-1.2,3.841,3.841,0,0,1,1.455-1.223,5.172,5.172,0,0,1,2.42-.495,4.573,4.573,0,0,1,3.574,1.2,4.252,4.252,0,0,1,1.059,2.915v7.786a.5.5,0,0,1-.495.495h-.4a.5.5,0,0,1-.495-.495V84.206a4.118,4.118,0,0,1-1.529,1.317,5.484,5.484,0,0,1-2.707.554Zm.238-1.361a3.776,3.776,0,0,0,2.821-1.128,4.454,4.454,0,0,0,1.1-3.247v-.812l-3.034.426a7.281,7.281,0,0,0-2.915.9,1.861,1.861,0,0,0-.99,1.6,1.886,1.886,0,0,0,.891,1.668,3.836,3.836,0,0,0,2.123.584Z" transform="translate(-133.429 -37.324)" fill="#e10098"/>
  <path id="Path_63" data-name="Path 63" d="M288.124,81.53a2.829,2.829,0,0,1-2.475-1.034,5.028,5.028,0,0,1-.728-2.891V70.676h-1.836a.5.5,0,0,1-.495-.495V69.85a.5.5,0,0,1,.495-.495h1.836v-3.96a.5.5,0,0,1,.495-.495h.4a.5.5,0,0,1,.495.495v3.96h2.915a.5.5,0,0,1,.495.495v.332a.5.5,0,0,1-.495.495h-2.915v6.835a3.831,3.831,0,0,0,.421,1.98,1.633,1.633,0,0,0,1.5.678h1.272a.5.5,0,0,1,.495.495V81a.5.5,0,0,1-.495.495Z" transform="translate(-145.667 -33.025)" fill="#e10098"/>
  <path id="Path_64" data-name="Path 64" d="M302.544,66.73a.5.5,0,0,1-.495-.495v-.916a.524.524,0,0,1,.52-.539h.891a.564.564,0,0,1,.539.539v.9a.516.516,0,0,1-.539.515Zm.257,14.74a.5.5,0,0,1-.495-.495V69.764a.5.5,0,0,1,.495-.495h.4a.5.5,0,0,1,.495.495V80.955a.5.5,0,0,1-.495.495Z" transform="translate(-155.495 -32.965)" fill="#e10098"/>
  <path id="Path_65" data-name="Path 65" d="M317.2,86.036a4.92,4.92,0,0,1-3.811-1.485A5.89,5.89,0,0,1,312,80.661v-1.98a5.8,5.8,0,0,1,1.411-3.856,4.88,4.88,0,0,1,3.811-1.485,4.806,4.806,0,0,1,3.786,1.485,5.737,5.737,0,0,1,1.435,3.856v1.98a5.826,5.826,0,0,1-1.435,3.88A4.887,4.887,0,0,1,317.2,86.036Zm0-1.361a3.534,3.534,0,0,0,2.678-1.059,4.489,4.489,0,0,0,1.1-3.054V78.819a4.4,4.4,0,0,0-1.1-3.034,3.494,3.494,0,0,0-2.678-1.079,3.569,3.569,0,0,0-2.727,1.064A4.455,4.455,0,0,0,313.4,78.8v1.742a4.558,4.558,0,0,0,1.079,3.054A3.613,3.613,0,0,0,317.2,84.66Z" transform="translate(-160.52 -37.283)" fill="#e10098"/>
  <path id="Path_66" data-name="Path 66" d="M340.135,85.755a.5.5,0,0,1-.495-.495V74.049a.5.5,0,0,1,.495-.495h.4a.5.5,0,0,1,.495.495v1.1a4.91,4.91,0,0,1,1.6-1.386,5.142,5.142,0,0,1,2.351-.495,4.38,4.38,0,0,1,3.549,1.485,5.623,5.623,0,0,1,1.267,3.821V85.24a.5.5,0,0,1-.495.495h-.4a.5.5,0,0,1-.495-.495V78.677a4.306,4.306,0,0,0-.94-2.97,3.326,3.326,0,0,0-2.7-1.049,3.524,3.524,0,0,0-2.7,1.079,4.078,4.078,0,0,0-.99,2.94V85.24a.5.5,0,0,1-.495.495Z" transform="translate(-174.48 -37.25)" fill="#e10098"/>
</svg>
