<svg id="mongo-logo" xmlns="http://www.w3.org/2000/svg" width="169.017" height="42.638" viewBox="0 0 169.017 42.638">
  <path id="Path_22" data-name="Path 22" d="M12.626,4.393C10.972,2.43,9.547.437,9.256.023a.074.074,0,0,0-.107,0c-.291.414-1.716,2.407-3.37,4.37C-8.42,22.5,8.015,34.725,8.015,34.725l.138.092c.123,1.886.429,4.6.429,4.6H9.808s.306-2.7.429-4.6l.138-.107C10.39,34.709,26.826,22.5,12.626,4.393ZM9.195,34.448a6.786,6.786,0,0,1-.934-.951v-.031l.888-19.72a.046.046,0,1,1,.092,0l.888,19.72V33.5A6.785,6.785,0,0,1,9.195,34.448Z" transform="translate(0 0)" fill="#fff"/>
  <path id="Path_23" data-name="Path 23" d="M192.347,105.654,185.5,89.046,185.482,89h-5.329v1.116h.86a.979.979,0,0,1,.691.291.957.957,0,0,1,.276.688l-.154,16.716a.978.978,0,0,1-.952.963l-.875.015v1.1h5.191v-1.1l-.538-.015a.979.979,0,0,1-.952-.963V92.059l7.463,17.832a.677.677,0,0,0,1.259,0l7.294-17.434.107,15.354a.985.985,0,0,1-.967.979h-.553v1.1h6.081v-1.1h-.829a.992.992,0,0,1-.967-.964l-.046-16.716a.982.982,0,0,1,.952-.979l.891-.015V89H199.2Z" transform="translate(-152.393 -75.35)" fill="#fff"/>
  <path id="Path_24" data-name="Path 24" d="M490.7,139.95a.93.93,0,0,1-.262-.678V131.01a4.849,4.849,0,0,0-1.386-3.684A5.184,5.184,0,0,0,485.315,126a5.945,5.945,0,0,0-5.158,2.651.12.12,0,0,1-.108.046.073.073,0,0,1-.077-.077l-.57-2.2h-.955l-2.448,1.4v.771h.631a1.032,1.032,0,0,1,.708.231.908.908,0,0,1,.262.709v9.726a.9.9,0,0,1-.939.94h-.616v1.125h5.635V140.2h-.616a.9.9,0,0,1-.939-.94v-6.412a6.244,6.244,0,0,1,.524-2.435,4.874,4.874,0,0,1,1.57-1.958,4.078,4.078,0,0,1,2.479-.755,2.824,2.824,0,0,1,2.4,1.017,4.252,4.252,0,0,1,.77,2.605v7.954a.9.9,0,0,1-.939.94h-.616v1.125h5.635v-1.125h-.616A.86.86,0,0,1,490.7,139.95Z" transform="translate(-402.994 -106.675)" fill="#fff"/>
  <path id="Path_25" data-name="Path 25" d="M838.507,90.259A10.9,10.9,0,0,0,833.33,89H826v1.121h.718a1.04,1.04,0,0,1,.764.353,1.085,1.085,0,0,1,.351.768V107.77a1.085,1.085,0,0,1-.351.768,1.074,1.074,0,0,1-.764.353H826v1.121h7.33a10.894,10.894,0,0,0,5.177-1.26,9.454,9.454,0,0,0,3.741-3.625,12,12,0,0,0,0-11.213A9.427,9.427,0,0,0,838.507,90.259Zm2.184,9.231a10.782,10.782,0,0,1-1.038,4.961,7.007,7.007,0,0,1-2.734,2.98,7.409,7.409,0,0,1-3.726.968h-1.481a1.04,1.04,0,0,1-.764-.353,1.085,1.085,0,0,1-.351-.768V91.7a1.052,1.052,0,0,1,.351-.768,1.074,1.074,0,0,1,.764-.353h1.481a7.411,7.411,0,0,1,3.726.968,7.007,7.007,0,0,1,2.734,2.98A10.781,10.781,0,0,1,840.691,99.491Z" transform="translate(-699.314 -75.35)" fill="#fff"/>
  <path id="Path_26" data-name="Path 26" d="M969.333,100.612a6.811,6.811,0,0,0-3.525-1.8c2.124-1.06,3.216-2.55,3.216-4.47a4.771,4.771,0,0,0-.831-2.78,5.527,5.527,0,0,0-2.339-1.889,8.549,8.549,0,0,0-3.5-.676h-8.3v1.121h.662a1.052,1.052,0,0,1,.77.353,1.081,1.081,0,0,1,.354.768V107.77a1.22,1.22,0,0,1-1.124,1.121H954v1.121h9.006a10.207,10.207,0,0,0,3.8-.691,6.18,6.18,0,0,0,2.741-2.027,5.542,5.542,0,0,0-.216-6.681ZM959,108.061a1.081,1.081,0,0,1-.354-.768V99.875h4.28a4.81,4.81,0,0,1,3.463,1.152,3.964,3.964,0,0,1,1.2,3,4.656,4.656,0,0,1-.523,2.12,4.039,4.039,0,0,1-1.586,1.628,4.923,4.923,0,0,1-2.555.63h-3.157A.98.98,0,0,1,959,108.061Zm-.339-9.769V91.7a1.048,1.048,0,0,1,.354-.768,1.087,1.087,0,0,1,.77-.353h2.032a4.3,4.3,0,0,1,3.218,1.075,3.9,3.9,0,0,1,1.015,2.78,4.069,4.069,0,0,1-.954,2.811,3.68,3.68,0,0,1-2.848,1.044Z" transform="translate(-807.682 -75.35)" fill="#fff"/>
  <path id="Path_27" data-name="Path 27" d="M367.656,126.98a8.06,8.06,0,0,0-3.911-.98,7.853,7.853,0,0,0-3.911.98,7.221,7.221,0,0,0-2.8,2.755,8.559,8.559,0,0,0,0,8.174,7.221,7.221,0,0,0,2.8,2.755,8.061,8.061,0,0,0,3.911.98,7.853,7.853,0,0,0,3.911-.98,7.222,7.222,0,0,0,2.8-2.755,8.559,8.559,0,0,0,0-8.174A7.119,7.119,0,0,0,367.656,126.98Zm1.13,6.842a6.9,6.9,0,0,1-1.375,4.516,4.862,4.862,0,0,1-7.333,0,8.1,8.1,0,0,1,0-9.031,4.862,4.862,0,0,1,7.333,0A6.867,6.867,0,0,1,368.787,133.822Z" transform="translate(-301.399 -106.675)" fill="#fff"/>
  <path id="Path_28" data-name="Path 28" d="M720.656,126.98a8.06,8.06,0,0,0-3.911-.98,7.853,7.853,0,0,0-3.911.98,7.222,7.222,0,0,0-2.8,2.755,8.56,8.56,0,0,0,0,8.174,7.222,7.222,0,0,0,2.8,2.755,8.061,8.061,0,0,0,3.911.98,7.853,7.853,0,0,0,3.911-.98,7.222,7.222,0,0,0,2.8-2.755,8.559,8.559,0,0,0,0-8.174A7.22,7.22,0,0,0,720.656,126.98Zm1.131,6.842a6.9,6.9,0,0,1-1.375,4.516,4.862,4.862,0,0,1-7.333,0,8.1,8.1,0,0,1,0-9.031,4.862,4.862,0,0,1,7.333,0A6.953,6.953,0,0,1,721.787,133.822Z" transform="translate(-600.259 -106.675)" fill="#fff"/>
  <path id="Path_29" data-name="Path 29" d="M604.847,126a7.25,7.25,0,0,0-3.369.784,5.962,5.962,0,0,0-2.385,2.138,5.422,5.422,0,0,0-.862,2.953,5.2,5.2,0,0,0,.661,2.614,5.918,5.918,0,0,0,1.754,1.907l-2.2,2.983a1.207,1.207,0,0,0-.108,1.261,1.194,1.194,0,0,0,1.077.661h.631a4.6,4.6,0,0,0-1.446,1.492,3.94,3.94,0,0,0-.6,2.061,3.8,3.8,0,0,0,1.738,3.229,8.084,8.084,0,0,0,4.754,1.23,11.478,11.478,0,0,0,3.954-.677,6.951,6.951,0,0,0,2.969-1.968,4.58,4.58,0,0,0,1.139-3.106,3.557,3.557,0,0,0-1.539-3.014,6.8,6.8,0,0,0-4.169-1.107h-6.154a.054.054,0,0,1-.031-.015s-.015-.031,0-.046l1.6-2.153a5.661,5.661,0,0,0,1.185.4,6.16,6.16,0,0,0,1.246.108,7.516,7.516,0,0,0,3.477-.784,6.154,6.154,0,0,0,2.416-2.138,5.311,5.311,0,0,0,.877-2.952,5.615,5.615,0,0,0-2.062-4.275.015.015,0,0,1,.016-.015l3.308.369v-1.522h-5.293A8.122,8.122,0,0,0,604.847,126Zm1.846,9.626a3.976,3.976,0,0,1-1.846.477,3.844,3.844,0,0,1-2.708-1.092,4.841,4.841,0,0,1,0-6.274,3.844,3.844,0,0,1,2.708-1.092,3.81,3.81,0,0,1,3.292,1.892,4.573,4.573,0,0,1,.569,2.337,4.352,4.352,0,0,1-.569,2.337A3.75,3.75,0,0,1,606.693,135.626Zm-4.169,5.659h4.169a3.184,3.184,0,0,1,2.385.723,2.631,2.631,0,0,1,.739,1.922,3.309,3.309,0,0,1-1.339,2.737,5.693,5.693,0,0,1-3.569,1.046,5.427,5.427,0,0,1-3.154-.846,2.862,2.862,0,0,1-1.185-2.476,3.3,3.3,0,0,1,.554-1.861A3.521,3.521,0,0,1,602.523,141.285Z" transform="translate(-506.283 -106.675)" fill="#fff"/>
  <path id="Path_30" data-name="Path 30" d="M1076.974,204.578a1.879,1.879,0,0,1-.974-1.661,1.915,1.915,0,0,1,.259-.966,1.755,1.755,0,0,1,.715-.694,2.155,2.155,0,0,1,2.04,0,1.879,1.879,0,0,1,.974,1.661,1.917,1.917,0,0,1-.259.966,1.754,1.754,0,0,1-.715.694,2.089,2.089,0,0,1-1.02.257A2.133,2.133,0,0,1,1076.974,204.578Zm1.873-.227a1.585,1.585,0,0,0,.594-.589,1.844,1.844,0,0,0,0-1.721,1.4,1.4,0,0,0-.594-.589,1.826,1.826,0,0,0-1.705,0,1.586,1.586,0,0,0-.594.589,1.844,1.844,0,0,0,0,1.721,1.4,1.4,0,0,0,.594.589,1.785,1.785,0,0,0,.853.211A1.591,1.591,0,0,0,1078.847,204.351Zm-1.675-.528v-.136l.031-.015h.092a.117.117,0,0,0,.075-.03.083.083,0,0,0,.031-.075v-1.4a.114.114,0,0,0-.031-.075.084.084,0,0,0-.075-.03h-.092l-.031-.015v-.136l.031-.015h.792a.824.824,0,0,1,.532.151.492.492,0,0,1,.2.423.464.464,0,0,1-.152.362.6.6,0,0,1-.38.181l.182.06.35.559a.116.116,0,0,0,.107.06h.09l.015.015v.136l-.015.015h-.471l-.031-.015-.488-.815h-.121v.543a.114.114,0,0,0,.031.075.084.084,0,0,0,.075.03h.092l.031.015v.136l-.031.015h-.807Zm.776-.981a.36.36,0,0,0,.29-.106.416.416,0,0,0,.106-.287.438.438,0,0,0-.09-.287.317.317,0,0,0-.259-.106h-.061a.113.113,0,0,0-.075.03.082.082,0,0,0-.031.075v.679Z" transform="translate(-910.971 -170.172)" fill="#fff"/>
</svg>
