<svg xmlns="http://www.w3.org/2000/svg" width="71.261" height="42.701" viewBox="0 0 71.261 42.701">
  <g id="nkm-logo_v02" transform="translate(-114 -196.71)">
    <path id="Path_156" data-name="Path 156" d="M176.385,458.931l-2.672,8.172h-2.034l-1.8-5.534-1.856,5.534h-2.019l-2.685-8.172h1.961l1.849,5.743,1.926-5.744h1.751l1.863,5.79,1.9-5.79Z" transform="translate(-43.194 -229.652)" fill="#fff"/>
    <path id="Path_157" data-name="Path 157" d="M288,465.595v1.518H281.67V458.94h6.176v1.518h-4.3v1.775h3.794V463.7h-3.794v1.892Z" transform="translate(-146.846 -229.661)" fill="#fff"/>
    <path id="Path_158" data-name="Path 158" d="M356.564,463.595a2.044,2.044,0,0,1,.4,1.278,1.888,1.888,0,0,1-.835,1.652,4.27,4.27,0,0,1-2.434.578H349.47V458.93h3.993a3.916,3.916,0,0,1,2.294.573,1.811,1.811,0,0,1,.8,1.548,1.964,1.964,0,0,1-1.086,1.8A2.156,2.156,0,0,1,356.564,463.595Zm-5.216-3.239v1.926h1.879a1.875,1.875,0,0,0,1.062-.248.819.819,0,0,0,.361-.724.8.8,0,0,0-.361-.718,1.948,1.948,0,0,0-1.062-.24Zm3.333,5.079a.84.84,0,0,0,.379-.759q0-1.016-1.507-1.016h-2.208v2.019h2.207a2.092,2.092,0,0,0,1.126-.246Z" transform="translate(-206.225 -229.653)" fill="#fff"/>
    <path id="Path_159" data-name="Path 159" d="M426,458.931h3.712a5.216,5.216,0,0,1,2.359.5,3.8,3.8,0,0,1,1.587,1.43,4.358,4.358,0,0,1,0,4.3,3.8,3.8,0,0,1-1.587,1.43,5.217,5.217,0,0,1-2.352.508H426Zm3.619,6.62a2.744,2.744,0,0,0,1.955-.683,2.711,2.711,0,0,0,0-3.7,2.744,2.744,0,0,0-1.955-.683H427.9v5.067Z" transform="translate(-273.25 -229.652)" fill="#fff"/>
    <path id="Path_160" data-name="Path 160" d="M514.718,465.595v1.518H508.39V458.94h6.176v1.518h-4.3v1.775h3.794V463.7H510.27v1.892Z" transform="translate(-345.407 -229.661)" fill="#fff"/>
    <path id="Path_161" data-name="Path 161" d="M575.537,458.94,572,467.112h-1.863l-3.526-8.172h2.036l2.484,5.837,2.521-5.837Z" transform="translate(-396.396 -229.661)" fill="#fff"/>
    <path id="Path_162" data-name="Path 162" d="M117.561,448.749a.493.493,0,1,0,0,.929,1.854,1.854,0,0,1,.206.981v2.067a.977.977,0,0,0,.238.71.939.939,0,0,0,.7.248h.232v1.576H118.2a2.535,2.535,0,0,1-1.821-.594,2.272,2.272,0,0,1-.621-1.718v-2.34a.63.63,0,0,0-.149-.452.554.554,0,0,0-.42-.155h-.426v-1.576h.426a.554.554,0,0,0,.42-.155.628.628,0,0,0,.149-.452v-2.337a2.278,2.278,0,0,1,.621-1.718,2.5,2.5,0,0,1,1.821-.594h.745v1.576h-.232a.94.94,0,0,0-.7.248.977.977,0,0,0-.238.71v2.067A1.8,1.8,0,0,1,117.561,448.749Z" transform="translate(-0.666 -215.849)" fill="#fc91f2"/>
    <path id="Path_163" data-name="Path 163" d="M656.23,449.651v-1.987a.939.939,0,0,0-.23-.683.9.9,0,0,0-.677-.236H655.1V445.23h.72a2.437,2.437,0,0,1,1.751.571,2.182,2.182,0,0,1,.6,1.652V449.7a.605.605,0,0,0,.143.435.533.533,0,0,0,.4.149h.41V451.8h-.41a.533.533,0,0,0-.4.149.605.605,0,0,0-.143.435v2.248a2.182,2.182,0,0,1-.6,1.652,2.437,2.437,0,0,1-1.751.571h-.72V455.34h.224A.9.9,0,0,0,656,455.1a.939.939,0,0,0,.23-.683v-1.987a1.781,1.781,0,0,1,.2-.944.475.475,0,1,0,0-.894A1.781,1.781,0,0,1,656.23,449.651Z" transform="translate(-473.896 -217.654)" fill="#fc91f2"/>
    <path id="Path_164" data-name="Path 164" d="M185.192,196.71H180.2l-9.671,16.316L160.7,196.762H149.782L138.179,209v-12.24H132.04V212.67l-13.025-15.907H114v26.206h5.989V207.055l12.164,14.813.9,1.094h5.128v-6.624l3.517-3.669,8.385,10.294h11.293V207.551l7.689,12.64H171.8l7.726-12.978.037,15.753h5.7Zm-39.521,11.731,10.009-10.768v23.417Z" transform="translate(0 0)" fill="#fff"/>
  </g>
</svg>
