<svg id="nkm-logo_v01-07" xmlns="http://www.w3.org/2000/svg" width="49.121" height="42.754" viewBox="0 0 49.121 42.754">
  <circle id="Ellipse_10" data-name="Ellipse 10" cx="12.924" cy="12.924" r="12.924" transform="translate(11.066 10.211)" fill="#18d2b9"/>
  <path id="Path_39" data-name="Path 39" d="M162.321,151.746l12.227-13.156h-7.589l-13.071,13.788V138.59h-6.914v17.919L132.3,138.59h-5.65V168.1H133.4V150.186l13.7,16.687,1.012,1.232h5.776v-7.463l3.963-4.132L167.3,168.1h7.969Z" transform="translate(-126.613 -138.59)" fill="#fff"/>
  <path id="Path_40" data-name="Path 40" d="M135.144,535.821l-.014-5.891-2.89,4.853h-1.02l-2.875-4.727v5.765H126.21V526h1.88l3.675,6.1,3.619-6.1h1.865l.028,9.818Z" transform="translate(-126.21 -493.067)" fill="#fff"/>
  <path id="Path_41" data-name="Path 41" d="M291.382,534v1.823h-7.6V526h7.42v1.823h-5.162v2.132H290.6v1.767h-4.561v2.272Z" transform="translate(-270.385 -493.067)" fill="#fff"/>
  <path id="Path_42" data-name="Path 42" d="M394.49,526h4.464a6.269,6.269,0,0,1,2.826.61,4.571,4.571,0,0,1,1.908,1.718,5.237,5.237,0,0,1,0,5.162,4.57,4.57,0,0,1-1.908,1.718,6.269,6.269,0,0,1-2.826.61H394.49Zm4.348,7.952a3.3,3.3,0,0,0,2.35-.82,3.257,3.257,0,0,0,0-4.446,3.285,3.285,0,0,0-2.35-.816h-2.076v6.087Z" transform="translate(-371.684 -493.067)" fill="#fff"/>
  <path id="Path_43" data-name="Path 43" d="M530.78,526h2.272v9.818H530.78Z" transform="translate(-496.389 -493.067)" fill="#fff"/>
  <path id="Path_44" data-name="Path 44" d="M572.36,536.568l5.507-9.738,5.689,9.7Z" transform="translate(-534.434 -493.827)" fill="#fc91f2"/>
</svg>
