<svg id="node-logo" xmlns="http://www.w3.org/2000/svg" xmlns:xlink="http://www.w3.org/1999/xlink" width="64.823" height="39.701" viewBox="0 0 64.823 39.701">
  <defs>
    <clipPath id="clip-path">
      <path id="Path_14" data-name="Path 14" d="M200.9,226.025l-6.174,3.563a.745.745,0,0,0-.373.646v7.132a.745.745,0,0,0,.373.646l6.174,3.566a.747.747,0,0,0,.746,0l6.173-3.566a.747.747,0,0,0,.372-.646v-7.132a.745.745,0,0,0-.374-.646l-6.172-3.563a.751.751,0,0,0-.747,0" transform="translate(-194.354 -225.925)"/>
    </clipPath>
    <linearGradient id="linear-gradient" x1="-0.847" y1="-1.034" x2="-0.838" y2="-1.034" gradientUnits="objectBoundingBox">
      <stop offset="0.3" stop-color="#3e863d"/>
      <stop offset="0.5" stop-color="#55934f"/>
      <stop offset="0.8" stop-color="#5aad45"/>
    </linearGradient>
    <clipPath id="clip-path-2">
      <path id="Path_16" data-name="Path 16" d="M195.4,237.941a.747.747,0,0,0,.22.193l5.3,3.059.882.507a.748.748,0,0,0,.43.1.761.761,0,0,0,.147-.027l6.511-11.922a.737.737,0,0,0-.174-.138l-4.042-2.334-2.137-1.229a.78.78,0,0,0-.193-.078Zm0,0" transform="translate(-195.398 -226.069)"/>
    </clipPath>
    <linearGradient id="linear-gradient-2" x1="-0.742" y1="-0.932" x2="-0.737" y2="-0.932" gradientUnits="objectBoundingBox">
      <stop offset="0.57" stop-color="#3e863d"/>
      <stop offset="0.72" stop-color="#619857"/>
      <stop offset="1" stop-color="#76ac64"/>
    </linearGradient>
    <clipPath id="clip-path-3">
      <path id="Path_18" data-name="Path 18" d="M203.475,225.937a.753.753,0,0,0-.3.1l-6.156,3.553,6.638,12.091a.74.74,0,0,0,.265-.091l6.174-3.566a.748.748,0,0,0,.36-.509l-6.767-11.56a.777.777,0,0,0-.151-.015l-.062,0" transform="translate(-197.021 -225.934)"/>
    </clipPath>
    <linearGradient id="linear-gradient-3" x1="-2.148" y1="-2.103" x2="-2.138" y2="-2.103" gradientUnits="objectBoundingBox">
      <stop offset="0.16" stop-color="#6bbf47"/>
      <stop offset="0.38" stop-color="#79b461"/>
      <stop offset="0.47" stop-color="#75ac64"/>
      <stop offset="0.7" stop-color="#659e5a"/>
      <stop offset="0.9" stop-color="#3e863d"/>
    </linearGradient>
  </defs>
  <path id="Path_9" data-name="Path 9" d="M177.361,177.882a1.232,1.232,0,0,1-.614-.164l-1.954-1.157c-.292-.163-.149-.221-.053-.254a3.946,3.946,0,0,0,.884-.4.148.148,0,0,1,.146.01l1.5.891a.2.2,0,0,0,.181,0l5.854-3.379a.185.185,0,0,0,.089-.158v-6.755a.188.188,0,0,0-.091-.161l-5.852-3.376a.18.18,0,0,0-.18,0l-5.851,3.376a.187.187,0,0,0-.093.16v6.755a.18.18,0,0,0,.091.157l1.6.926c.87.435,1.4-.078,1.4-.593v-6.667a.167.167,0,0,1,.17-.169h.741a.168.168,0,0,1,.169.169v6.67a1.623,1.623,0,0,1-1.734,1.827,2.509,2.509,0,0,1-1.35-.366l-1.536-.885a1.238,1.238,0,0,1-.614-1.068v-6.755a1.23,1.23,0,0,1,.614-1.067l5.86-3.381a1.284,1.284,0,0,1,1.231,0l5.853,3.382a1.235,1.235,0,0,1,.614,1.067v6.755a1.239,1.239,0,0,1-.614,1.067l-5.853,3.381a1.23,1.23,0,0,1-.617.164" transform="translate(-145.322 -138.181)" fill="#689f63"/>
  <path id="Path_10" data-name="Path 10" d="M212.941,191.367c-2.561,0-3.1-1.176-3.1-2.162a.168.168,0,0,1,.17-.169h.756a.169.169,0,0,1,.167.143c.114.77.454,1.159,2,1.159,1.234,0,1.758-.279,1.758-.933,0-.377-.149-.656-2.066-.844-1.6-.158-2.594-.511-2.594-1.794,0-1.181,1-1.884,2.666-1.884,1.874,0,2.8.651,2.92,2.049a.171.171,0,0,1-.17.185h-.761a.168.168,0,0,1-.164-.132c-.183-.81-.626-1.07-1.829-1.07-1.347,0-1.5.469-1.5.821,0,.426.185.551,2,.791,1.8.239,2.654.576,2.654,1.84s-1.064,2.006-2.919,2.006m7.13-7.164h.2a.171.171,0,0,0,.192-.179c0-.173-.119-.173-.185-.173h-.2Zm-.239-.554h.435c.149,0,.443,0,.443.334a.291.291,0,0,1-.239.311c.174.012.186.126.21.287a1.235,1.235,0,0,0,.066.334h-.268c-.007-.059-.048-.381-.048-.4-.018-.072-.043-.107-.132-.107h-.221v.507h-.245Zm-.523.63a.946.946,0,1,0,.942-.944.947.947,0,0,0-.942.944m2.075,0a1.128,1.128,0,1,1-1.128-1.128,1.132,1.132,0,0,1,1.128,1.128" transform="translate(-179.093 -156.321)" fill="#689f63"/>
  <path id="Path_11" data-name="Path 11" d="M13.912,13.269a.75.75,0,0,0-.375-.651L7.33,9.047a.725.725,0,0,0-.341-.1H6.925a.737.737,0,0,0-.343.1L.375,12.618A.755.755,0,0,0,0,13.27l.014,9.619a.369.369,0,0,0,.186.324.355.355,0,0,0,.372,0L4.262,21.1a.757.757,0,0,0,.375-.651V15.955a.747.747,0,0,1,.374-.649l1.571-.9a.745.745,0,0,1,.375-.1.732.732,0,0,1,.373.1l1.57.9a.748.748,0,0,1,.375.649v4.493a.759.759,0,0,0,.376.651l3.687,2.112a.366.366,0,0,0,.375,0,.376.376,0,0,0,.186-.324ZM43.2,18.277a.186.186,0,0,1-.094.162l-2.132,1.229a.188.188,0,0,1-.187,0l-2.132-1.229a.186.186,0,0,1-.094-.162V15.816a.189.189,0,0,1,.092-.163l2.131-1.231a.189.189,0,0,1,.189,0L43.1,15.653a.187.187,0,0,1,.094.163ZM43.775.048a.375.375,0,0,0-.558.328V9.9a.262.262,0,0,1-.393.227l-1.555-.9a.749.749,0,0,0-.749,0l-6.209,3.583a.748.748,0,0,0-.375.648v7.169a.75.75,0,0,0,.375.649l6.209,3.586a.753.753,0,0,0,.75,0l6.209-3.587a.751.751,0,0,0,.375-.649V2.764a.751.751,0,0,0-.385-.655Zm20.675,15.7a.75.75,0,0,0,.373-.648V13.366a.75.75,0,0,0-.373-.648L58.281,9.136a.749.749,0,0,0-.752,0l-6.207,3.583a.748.748,0,0,0-.375.649v7.166a.752.752,0,0,0,.378.652L57.492,24.7a.748.748,0,0,0,.736,0l3.731-2.073a.374.374,0,0,0,0-.652L55.716,18.4a.372.372,0,0,1-.189-.324V15.824a.372.372,0,0,1,.188-.325l1.943-1.121a.371.371,0,0,1,.374,0L59.976,15.5a.374.374,0,0,1,.188.324V17.59a.374.374,0,0,0,.563.324Zm0,0" transform="translate(0 0)" fill="#fff" fill-rule="evenodd"/>
  <path id="Path_12" data-name="Path 12" d="M387.177,105.087a.142.142,0,0,1,.144,0l1.191.687a.144.144,0,0,1,.072.125v1.376a.144.144,0,0,1-.072.125l-1.191.687a.142.142,0,0,1-.144,0l-1.191-.687a.143.143,0,0,1-.073-.125V105.9a.142.142,0,0,1,.072-.125Zm0,0" transform="translate(-329.363 -89.671)" fill="#689f63" fill-rule="evenodd"/>
  <g id="Group_50" data-name="Group 50" transform="translate(17.005 9.072)" clip-path="url(#clip-path)">
    <path id="Path_13" data-name="Path 13" d="M178.094,197.13,160.7,188.6l-8.92,18.2,17.4,8.527Zm0,0" transform="translate(-158.017 -194.072)" fill="url(#linear-gradient)"/>
  </g>
  <g id="Group_51" data-name="Group 51" transform="translate(17.158 9.093)" clip-path="url(#clip-path-2)">
    <path id="Path_15" data-name="Path 15" d="M144.07,194.1l12.283,16.625,16.245-12L160.314,182.1Zm0,0" transform="translate(-151.591 -188.544)" fill="url(#linear-gradient-2)"/>
  </g>
  <g id="Group_52" data-name="Group 52" transform="translate(17.396 9.073)" clip-path="url(#clip-path-3)">
    <path id="Path_17" data-name="Path 17" d="M197.02,225.934v15.742h13.435V225.934Zm0,0" transform="translate(-197.02 -225.934)" fill="url(#linear-gradient-3)"/>
  </g>
</svg>
