<svg id="sql-database-generic" xmlns="http://www.w3.org/2000/svg" width="44.487" height="59.316" viewBox="0 0 44.487 59.316">
  <g id="Group_442" data-name="Group 442" transform="translate(0 8.103)">
    <path id="Path_174" data-name="Path 174" d="M0,10.929V54.037c0,4.476,9.959,8.1,22.244,8.1V10.929Z" transform="translate(0 -10.929)" fill="#0072c6" fill-rule="evenodd"/>
    <path id="Path_175" data-name="Path 175" d="M29.589,62.142h.3c12.284,0,22.244-3.627,22.244-8.1V10.93H29.589V62.142Z" transform="translate(-7.65 -10.929)" fill="#0072c6" fill-rule="evenodd"/>
  </g>
  <path id="Path_177" data-name="Path 177" d="M44.487,8.1c0,4.475-9.959,8.1-22.244,8.1S0,12.579,0,8.1,9.959,0,22.244,0,44.487,3.628,44.487,8.1" transform="translate(0 0)" fill="#fff" fill-rule="evenodd"/>
  <path id="Path_178" data-name="Path 178" d="M41.525,8.435c0,2.955-7.922,5.347-17.7,5.347s-17.7-2.392-17.7-5.347,7.924-5.347,17.7-5.347,17.7,2.393,17.7,5.347" transform="translate(-1.585 -0.798)" fill="#7fba00" fill-rule="evenodd"/>
  <path id="Path_179" data-name="Path 179" d="M37.819,11.7c2.316-.9,3.709-2.035,3.709-3.265,0-2.955-7.923-5.348-17.7-5.348s-17.7,2.393-17.7,5.348c0,1.229,1.392,2.362,3.709,3.265,3.235-1.263,8.291-2.078,13.988-2.078s10.751.815,13.988,2.078" transform="translate(-1.586 -0.799)" fill="#b8d432" fill-rule="evenodd"/>
  <path id="Path_180" data-name="Path 180" d="M17.284,47.665a3.68,3.68,0,0,1-1.45,3.112,6.475,6.475,0,0,1-4,1.1A7.57,7.57,0,0,1,8.2,51.092V47.94a5.586,5.586,0,0,0,3.71,1.438,2.509,2.509,0,0,0,1.513-.394,1.236,1.236,0,0,0,.534-1.045,1.465,1.465,0,0,0-.514-1.112,9.416,9.416,0,0,0-2.09-1.221Q8.14,44.091,8.141,41.47a3.741,3.741,0,0,1,1.4-3.047,5.686,5.686,0,0,1,3.719-1.147,9.251,9.251,0,0,1,3.408.542v2.944a5.528,5.528,0,0,0-3.231-.985A2.382,2.382,0,0,0,12,40.165a1.223,1.223,0,0,0-.528,1.039,1.489,1.489,0,0,0,.426,1.1,6.9,6.9,0,0,0,1.747,1.059,8.655,8.655,0,0,1,2.806,1.9,3.533,3.533,0,0,1,.834,2.4Zm15.1-3.19A8.088,8.088,0,0,1,31.261,48.8a6.02,6.02,0,0,1-3.171,2.57l4.071,3.791H28.051l-2.907-3.279a6.789,6.789,0,0,1-3.373-.994,6.218,6.218,0,0,1-2.32-2.536,7.826,7.826,0,0,1-.818-3.589,8.424,8.424,0,0,1,.885-3.914A6.309,6.309,0,0,1,22.009,38.2a7.236,7.236,0,0,1,3.681-.925,6.746,6.746,0,0,1,3.47.9,6.1,6.1,0,0,1,2.379,2.55,8.114,8.114,0,0,1,.848,3.752Zm-3.328.178a5.549,5.549,0,0,0-.931-3.393,3,3,0,0,0-2.545-1.246,3.191,3.191,0,0,0-2.634,1.249,5.21,5.21,0,0,0-.988,3.328,5.207,5.207,0,0,0,.968,3.3A3.107,3.107,0,0,0,25.5,49.13a3.151,3.151,0,0,0,2.594-1.2,5.1,5.1,0,0,0,.961-3.282Zm14.008,6.98h-8.36V37.513H37.87v11.54h5.2Z" transform="translate(-2.105 -9.638)" fill="#fff" fill-rule="evenodd"/>
</svg>
